<?xml version="1.0" encoding="utf-8"?>
<!-- Svg Vector Icons : http://www.onlinewebfonts.com/icon -->
<!DOCTYPE svg PUBLIC "-//W3C//DTD SVG 1.1//EN" "http://www.w3.org/Graphics/SVG/1.1/DTD/svg11.dtd">
<svg version="1.1" xmlns="http://www.w3.org/2000/svg" xmlns:xlink="http://www.w3.org/1999/xlink" x="0px" y="0px" viewBox="0 0 1000 1000" enable-background="new 0 0 1000 1000" xml:space="preserve">
<metadata> Svg Vector Icons : http://www.onlinewebfonts.com/icon </metadata>
<g><path d="M500.8,86.9c67.5,0,130.9,26.3,178.7,74c47.7,47.7,74,111.2,74,178.7c0,67.5-26.3,130.9-74,178.7c-47.7,47.7-111.2,74-178.7,74c-67.5,0-130.9-26.3-178.7-74c-47.7-47.7-74-111.2-74-178.7c0-67.5,26.3-130.9,74-178.7C369.8,113.2,433.3,86.9,500.8,86.9 M500.8,28.2c-172,0-311.4,139.4-311.4,311.4c0,172,139.4,311.4,311.4,311.4c172,0,311.4-139.4,311.4-311.4C812.2,167.6,672.8,28.2,500.8,28.2L500.8,28.2z"/><path d="M321.4,406.3c67.5,0,130.9,26.3,178.7,74c47.7,47.7,74,111.2,74,178.7s-26.3,130.9-74,178.7c-47.7,47.7-111.2,74-178.7,74c-67.5,0-130.9-26.3-178.7-74c-47.7-47.7-74-111.2-74-178.7S95,528,142.7,480.3C190.5,432.6,253.9,406.3,321.4,406.3 M321.4,347.6c-79.7,0-159.4,30.4-220.2,91.2c-121.6,121.6-121.6,318.8,0,440.4c60.8,60.8,140.5,91.2,220.2,91.2c79.7,0,159.4-30.4,220.2-91.2c121.6-121.6,121.6-318.8,0-440.4C480.8,378,401.1,347.6,321.4,347.6L321.4,347.6z"/><path d="M678.6,407.7c32.8,0,64.8,6.2,95.1,18.5c31.3,12.7,59.4,31.4,83.6,55.5c47.7,47.7,74,111.2,74,178.7S905,791.3,857.3,839c-47.7,47.7-111.2,74-178.7,74s-130.9-26.3-178.7-74c-47.7-47.7-74-111.2-74-178.7s26.3-130.9,74-178.7C547.6,434,611.1,407.7,678.6,407.7 M678.6,349c-79.7,0-159.4,30.4-220.2,91.2c-121.6,121.6-121.6,318.8,0,440.4c60.8,60.8,140.5,91.2,220.2,91.2s159.4-30.4,220.2-91.2c121.6-121.6,121.6-318.8,0-440.4C838,379.4,758.3,349,678.6,349L678.6,349z"/></g>
</svg>